<svg xmlns="http://www.w3.org/2000/svg" width="22" height="22" viewBox="0 0 22 22">
    <g fill="none" fill-rule="evenodd">
        <g fill="#888">
            <g>
                <g>
                    <g>
                        <g>
                            <path d="M3.065 2l16.091 16.095L18 19.248l-2.647-2.65-.385-.386c-1.23.494-2.574.767-3.981.767-4.54 0-8.415-2.824-9.986-6.809.708-1.802 1.893-3.359 3.39-4.53L1.909 3.157 3.065 2zm3.863 6.173c-.3.608-.481 1.28-.481 1.997 0 2.506 2.033 4.54 4.539 4.54.717 0 1.389-.182 1.992-.482l-1.402-1.402c-.19.04-.386.068-.59.068-1.503 0-2.724-1.221-2.724-2.724 0-.204.028-.4.069-.594zm4.058-4.811c4.543 0 8.415 2.823 9.99 6.808-.667 1.689-1.747 3.168-3.118 4.312l-2.655-2.655c.204-.513.322-1.071.322-1.657 0-2.505-2.034-4.539-4.54-4.539-.585 0-1.143.123-1.656.322L7.37 3.997c1.13-.408 2.346-.635 3.617-.635zm0 4.085c1.502 0 2.723 1.22 2.723 2.723l-.013.15-2.86-2.86z" transform="translate(-602 -567) translate(312 169) translate(0 33) translate(0 336) translate(290 29)"/>
                        </g>
                    </g>
                </g>
            </g>
        </g>
    </g>
</svg>
