<svg xmlns="http://www.w3.org/2000/svg" width="24" height="24" viewBox="0 0 24 24">
    <g fill="none" fill-rule="evenodd">
        <g fill="#7EC543">
            <g>
                <g>
                    <g>
                        <path d="M13.372 12.5l6.356-6.357c.175-.175.272-.408.272-.657 0-.25-.096-.483-.272-.658l-.557-.557c-.175-.175-.408-.271-.657-.271-.25 0-.483.096-.658.271L11.5 10.627 5.144 4.271C4.969 4.096 4.736 4 4.486 4c-.248 0-.482.096-.657.271l-.557.557c-.363.363-.363.953 0 1.315L9.628 12.5l-6.356 6.357c-.175.175-.271.408-.271.657 0 .249.096.482.271.658l.557.556c.175.176.409.272.657.272.25 0 .483-.096.658-.272l6.356-6.356 6.356 6.356c.175.176.409.272.658.272.249 0 .482-.096.657-.272l.557-.556c.175-.175.272-.409.272-.658 0-.249-.097-.482-.272-.657l-6.356-6.357z" transform="translate(-832.000000, -238.000000) translate(488.000000, 222.000000) translate(344.000000, 16.000000)"/>
                    </g>
                </g>
            </g>
        </g>
    </g>
</svg>
